# xmcd CD database file
#
# Track frame offsets:
#	150
#	14869
#	36423
#	53304
#	70498
#	89171
#	105186
#	119164
#	134526
#	151962
#	165675
#	188673
#	206457
#
# Disc length: 2944 seconds
#
# Revision: 0
# Processed by: cddbd v1.5.1PL2 Copyright (c) Steve Scherf et al.
# Submitted via: CDex 1.51
#
DISCID=b90b7e0d
DTITLE=Various Artist - Style Bossa Collection "Lover"
DYEAR=2005
DGENRE=Vocal
TTITLE0=RIO
TTITLE1=Just The Two Of Us
TTITLE2=Private Eyes
TTITLE3=Amor
TTITLE4=Desafinado
TTITLE5=Madalena
TTITLE6=SHE
TTITLE7=O Pato
TTITLE8=I Can't Tell You Why
TTITLE9=Night And Day
TTITLE10=Dancing Under The Star
TTITLE11=Chega De Saudade
TTITLE12=Manha De Carnaval
EXTD=YEAR: 2005
EXTT0=
EXTT1=
EXTT2=
EXTT3=
EXTT4=
EXTT5=
EXTT6=
EXTT7=
EXTT8=
EXTT9=
EXTT10=
EXTT11=
EXTT12=
PLAYORDER=
